<?xml version="1.0" standalone="no"?><!DOCTYPE svg PUBLIC "-//W3C//DTD SVG 1.1//EN" "http://www.w3.org/Graphics/SVG/1.1/DTD/svg11.dtd"><svg class="icon" width="200px" height="200.00px" viewBox="0 0 1024 1024" version="1.1" xmlns="http://www.w3.org/2000/svg"><path fill="#8a8a8a" d="M512 0a512 512 0 1 0 512 512A512.557127 512.557127 0 0 0 512 0z m0 912.574538a400.574538 400.574538 0 1 1 400.574538-400.574538 401.131665 401.131665 0 0 1-400.574538 400.574538z"  /><path fill="#8a8a8a" d="M690.837867 456.287269h-111.425462v-111.425463a55.712731 55.712731 0 1 0-111.425463 0v111.425463h-111.425462a55.712731 55.712731 0 0 0 0 111.425462h111.425462v111.425463a55.712731 55.712731 0 1 0 111.425463 0v-111.425463h111.425462a55.712731 55.712731 0 0 0 0-111.425462z"  /></svg>